<?xml version="1.0" encoding="UTF-8"?>
<svg id="Layer_2" data-name="Layer 2" xmlns="http://www.w3.org/2000/svg" xmlns:xlink="http://www.w3.org/1999/xlink" viewBox="0 0 32 32">
  <defs>
    <style>
      .cls-1 {
        fill: #a1cd40;
      }

      .cls-2 {
        fill: #38c0c5;
      }

      .cls-3 {
        fill: #141d28;
      }

      .cls-4 {
        fill: url(#linear-gradient);
      }
    </style>
    <linearGradient id="linear-gradient" x1="4.66" y1="8.27" x2="20.81" y2="24.07" gradientUnits="userSpaceOnUse">
      <stop offset="0" stop-color="#a1cd40"/>
      <stop offset=".18" stop-color="#93cb51"/>
      <stop offset=".53" stop-color="#6ec67f"/>
      <stop offset=".99" stop-color="#38c0c5"/>
    </linearGradient>
  </defs>
  <g id="Layer_1-2" data-name="Layer 1">
    <g>
      <path class="cls-4" d="m16,2C9.37,2,4,7.37,4,14c0,1.76.38,3.43,1.06,4.93l-1.27,6.14,4.82-1.59c2.05,1.62,4.63,2.59,7.44,2.59c6.65,0,12.04-5.39,12.04-12.04S22.68,2,16,2Z"/>
      <path class="cls-3" d="m12.5,20.5c-.09,0-.17-.01-.25-.03-.44-.09-.79-.45-.88-.89-.04-.24-.02-.48.08-.69.41-.92.61-1.98.61-3.24v-4.44l-2.82-1.28c-.29-.13-.47-.41-.47-.73,0-.32.18-.6.47-.73l7.1-3.23c.36-.16.74-.25,1.14-.25s.78.09,1.14.25l7.1,3.23c.29.13.47.41.47.73,0,.32-.18.6-.47.73l-2.15.98v4.87c0,.18-.1.34-.26.41l-4.83,2.11c-.18.08-.35.16-.52.17h-.02c-.04,0-.07,0-.09,0-.21-.03-.41-.13-.62-.22-.11-.05-.21-.09-.32-.14l-2.06-.77c-.24-.09-.37-.34-.30-.56.06-.18.23-.31.42-.31.05,0,.1.01.15.03.84.31,1.73.48,2.63.48,1.04,0,2.04-.21,3-.62,1.19-.52,1.96-1.7,1.96-3v-2.04l-4.07,1.85c-.36.16-.74.25-1.14.25s-.78-.09-1.14-.25l-3.41-1.55v4.11c0,.97.2,2,.65,3.26.04.12.07.25.07.37,0,.63-.51,1.15-1.15,1.15Z"/>
    </g>
  </g>
</svg> 